<svg width="29" height="28" viewBox="0 0 29 28" fill="none" xmlns="http://www.w3.org/2000/svg">
<path d="M23 0H6C2.68629 0 0 2.68629 0 6V22C0 25.3137 2.68629 28 6 28H23C26.3137 28 29 25.3137 29 22V6C29 2.68629 26.3137 0 23 0Z" fill="#F7F7F7"/>
<path d="M9.45298 23.3979L4.00098 24.6099L5.21298 19.1579C4.05104 16.9794 3.71034 14.4559 4.25295 12.0472C4.79556 9.63851 6.18536 7.50487 8.16919 6.03495C10.153 4.56503 12.5989 3.85664 15.0612 4.03884C17.5235 4.22103 19.8385 5.28167 21.5844 7.02756C23.3302 8.77344 24.3909 11.0884 24.5731 13.5507C24.7553 16.013 24.0469 18.4589 22.577 20.4427C21.107 22.4265 18.9734 23.8164 16.5647 24.359C14.156 24.9016 11.6325 24.5609 9.45398 23.3989L9.45298 23.3979ZM9.15298 14.3049C9.14347 14.9876 9.26971 15.6654 9.52438 16.2988C9.77905 16.9323 10.1571 17.5088 10.6365 17.995C11.1159 18.4811 11.6871 18.8671 12.3169 19.1306C12.9468 19.394 13.6227 19.5297 14.3055 19.5297C14.9882 19.5297 15.6642 19.394 16.294 19.1306C16.9239 18.8671 17.4951 18.4811 17.9745 17.995C18.4539 17.5088 18.8319 16.9323 19.0866 16.2988C19.3412 15.6654 19.4675 14.9876 19.458 14.3049H17.397C17.4044 14.7156 17.3299 15.1236 17.1778 15.5052C17.0258 15.8867 16.7992 16.2341 16.5114 16.5272C16.2236 16.8202 15.8803 17.0529 15.5016 17.2118C15.1228 17.3707 14.7162 17.4525 14.3055 17.4525C13.8948 17.4525 13.4881 17.3707 13.1094 17.2118C12.7306 17.0529 12.3873 16.8202 12.0995 16.5272C11.8117 16.2341 11.5852 15.8867 11.4331 15.5052C11.2811 15.1236 11.2066 14.7156 11.214 14.3049H9.15298Z" fill="#FF6500"/>
</svg>
