<svg width="16" height="17" viewBox="0 0 16 17" fill="none" xmlns="http://www.w3.org/2000/svg">
<path d="M7.26027 0.164062C8.39195 0.166582 9.47628 0.618556 10.2747 1.42056C11.0731 2.22255 11.5203 3.30888 11.5178 4.44056C11.5152 5.57224 11.0633 6.65657 10.2613 7.455C9.45928 8.25344 8.37295 8.70058 7.24127 8.69806C6.402 8.68723 5.58453 8.4294 4.8909 7.95678C4.19728 7.48416 3.65824 6.81769 3.34111 6.04058C3.02397 5.26346 2.94277 4.41014 3.10766 3.58716C3.27256 2.76419 3.67622 2.00801 4.26827 1.41306C4.65992 1.01776 5.12592 0.703888 5.63944 0.489524C6.15295 0.27516 6.70381 0.164548 7.26027 0.164062ZM7.24827 1.27906C6.41537 1.28514 5.61885 1.62117 5.03327 2.2135C4.44768 2.80583 4.12081 3.60615 4.12427 4.43906C4.1298 5.27374 4.46308 6.07282 5.05227 6.66406C5.34071 6.95682 5.68461 7.18915 6.06388 7.34745C6.44315 7.50575 6.85018 7.58685 7.26116 7.58601C7.67214 7.58518 8.07883 7.50241 8.45745 7.34257C8.83607 7.18272 9.17903 6.949 9.46627 6.65506C10.054 6.06206 10.3832 5.26054 10.3819 4.42562C10.3806 3.59069 10.0489 2.79022 9.45927 2.19906C9.16947 1.9074 8.82482 1.67596 8.44519 1.51806C8.06555 1.36017 7.65943 1.27894 7.24827 1.27906Z" fill="#FF6500"/>
<path d="M13.3873 9.90112C13.6124 9.96008 13.8327 10.036 14.0463 10.1281C14.4783 10.3482 14.8223 10.7091 15.0213 11.1511C15.1433 11.3976 15.1886 11.675 15.1511 11.9474C15.1137 12.2198 14.9953 12.4748 14.8113 12.6791C14.5693 12.9791 14.2873 13.2461 14.0113 13.5221C13.3603 14.1881 12.6993 14.8491 12.0413 15.5161C11.793 15.7766 11.4602 15.9404 11.1023 15.9781C10.8343 16.0091 10.5663 16.0481 10.3023 16.0921C10.1315 16.1362 9.95217 16.1352 9.78184 16.0893C9.61151 16.0435 9.45597 15.9542 9.33038 15.8304C9.2048 15.7065 9.11344 15.5522 9.06524 15.3825C9.01703 15.2128 9.0136 15.0335 9.0553 14.8621C9.0973 14.5461 9.1393 14.2301 9.1893 13.9151C9.2368 13.6154 9.37868 13.3387 9.5943 13.1251C10.4543 12.2558 11.316 11.3868 12.1793 10.5181C12.4909 10.169 12.9218 9.94892 13.3873 9.90112ZM10.1523 14.9941C10.4523 14.9501 10.7243 14.9181 10.9933 14.8651C11.0929 14.8444 11.1847 14.7963 11.2583 14.7261C11.7653 14.2261 12.2683 13.7131 12.7723 13.2041C12.7993 13.1761 12.8223 13.1441 12.8473 13.1141L12.7623 13.1861L11.9183 12.3501C11.4533 12.8211 10.9133 13.3651 10.3753 13.9141C10.331 13.9592 10.3008 14.0162 10.2883 14.0781C10.2383 14.3731 10.2013 14.6701 10.1513 14.9961L10.1523 14.9941ZM14.0843 11.7091C14.0092 11.5843 13.9253 11.465 13.8333 11.3521C13.4623 10.9521 13.2743 10.9601 12.9023 11.3521C12.888 11.3633 12.876 11.3771 12.867 11.3929C12.858 11.4087 12.8523 11.4261 12.85 11.4441C12.8478 11.4622 12.8491 11.4804 12.854 11.4979C12.8589 11.5155 12.8671 11.5318 12.8783 11.5461C13.0406 11.8328 13.2768 12.0707 13.5623 12.2351C13.5985 12.2601 13.6425 12.2715 13.6863 12.2671C13.8748 12.1259 14.0146 11.9294 14.0863 11.7051L14.0843 11.7091Z" fill="#FF6500"/>
<path d="M7.39818 9.81207C8.14148 9.82293 8.87948 9.93909 9.59018 10.1571C9.70756 10.1883 9.81064 10.2589 9.88218 10.3571C9.95383 10.4569 9.98912 10.5783 9.98218 10.7011C9.98028 10.8206 9.93839 10.9361 9.86318 11.0291C9.78712 11.1227 9.6812 11.1873 9.56318 11.2121C9.46371 11.2321 9.36091 11.2284 9.26318 11.2011C8.3642 10.9364 7.42119 10.8551 6.49018 10.9621C5.66121 11.0224 4.85463 11.2587 4.12419 11.6553C3.39376 12.0519 2.75626 12.5997 2.25418 13.2621C1.76396 13.9103 1.49601 14.6994 1.49018 15.5121C1.49959 15.6318 1.46999 15.7513 1.40582 15.8528C1.34165 15.9543 1.24635 16.0323 1.13418 16.0751C1.03829 16.1169 0.931922 16.1283 0.82933 16.1079C0.726738 16.0876 0.632826 16.0363 0.56018 15.9611C0.50089 15.9031 0.454963 15.8329 0.425601 15.7553C0.39624 15.6778 0.384152 15.5948 0.39018 15.5121C0.399936 14.424 0.768297 13.3695 1.43818 12.5121C2.42598 11.2404 3.832 10.3594 5.40718 10.0251C6.05964 9.87295 6.7283 9.80141 7.39818 9.81207Z" fill="#FF6500"/>
</svg>
