<svg width="16" height="17" viewBox="0 0 16 17" fill="none" xmlns="http://www.w3.org/2000/svg">
<path d="M7.26027 0.677979C8.39195 0.680498 9.47628 1.13247 10.2747 1.93447C11.0731 2.73647 11.5203 3.8228 11.5178 4.95448C11.5152 6.08616 11.0633 7.17048 10.2613 7.96892C9.45928 8.76736 8.37295 9.2145 7.24127 9.21198C6.402 9.20114 5.58453 8.94332 4.8909 8.4707C4.19728 7.99808 3.65824 7.33161 3.34111 6.55449C3.02397 5.77738 2.94277 4.92406 3.10766 4.10108C3.27256 3.2781 3.67622 2.52193 4.26827 1.92698C4.65992 1.53168 5.12592 1.2178 5.63944 1.00344C6.15295 0.789076 6.70381 0.678464 7.26027 0.677979ZM7.24827 1.79298C6.41537 1.79906 5.61885 2.13508 5.03327 2.72741C4.44768 3.31974 4.12081 4.12006 4.12427 4.95298C4.1298 5.78765 4.46308 6.58673 5.05227 7.17798C5.34071 7.47074 5.68461 7.70306 6.06388 7.86136C6.44315 8.01967 6.85018 8.10077 7.26116 8.09993C7.67214 8.09909 8.07883 8.01633 8.45745 7.85648C8.83607 7.69664 9.17903 7.46291 9.46627 7.16898C10.054 6.57597 10.3832 5.77446 10.3819 4.93953C10.3806 4.10461 10.0489 3.30414 9.45927 2.71298C9.16947 2.42132 8.82482 2.18987 8.44519 2.03198C8.06555 1.87408 7.65943 1.79286 7.24827 1.79298Z" fill="#FF6500"/>
<path d="M13.3873 10.4141C13.6124 10.473 13.8327 10.5489 14.0463 10.6411C14.4783 10.8611 14.8223 11.222 15.0213 11.6641C15.1433 11.9105 15.1886 12.1879 15.1511 12.4603C15.1137 12.7328 14.9953 12.9877 14.8113 13.1921C14.5693 13.4921 14.2873 13.7591 14.0113 14.0351C13.3603 14.7011 12.6993 15.3621 12.0413 16.0291C11.793 16.2896 11.4602 16.4533 11.1023 16.4911C10.8343 16.5221 10.5663 16.5611 10.3023 16.6051C10.1315 16.6491 9.95217 16.6481 9.78184 16.6023C9.61151 16.5564 9.45597 16.4672 9.33038 16.3433C9.2048 16.2194 9.11344 16.0651 9.06524 15.8954C9.01703 15.7257 9.0136 15.5465 9.0553 15.3751C9.0973 15.0591 9.1393 14.7431 9.1893 14.4281C9.2368 14.1283 9.37868 13.8516 9.5943 13.6381C10.4543 12.7687 11.316 11.8997 12.1793 11.0311C12.4909 10.6819 12.9218 10.4619 13.3873 10.4141ZM10.1523 15.5071C10.4523 15.4631 10.7243 15.4311 10.9933 15.3781C11.0929 15.3574 11.1847 15.3092 11.2583 15.2391C11.7653 14.7391 12.2683 14.2261 12.7723 13.7171C12.7993 13.6891 12.8223 13.6571 12.8473 13.6271L12.7623 13.6991L11.9183 12.8631C11.4533 13.3341 10.9133 13.8781 10.3753 14.4271C10.331 14.4721 10.3008 14.5291 10.2883 14.5911C10.2383 14.8861 10.2013 15.1831 10.1513 15.5091L10.1523 15.5071ZM14.0843 12.2221C14.0092 12.0973 13.9253 11.9779 13.8333 11.8651C13.4623 11.4651 13.2743 11.4731 12.9023 11.8651C12.888 11.8762 12.876 11.8901 12.867 11.9059C12.858 11.9217 12.8523 11.9391 12.85 11.9571C12.8478 11.9751 12.8491 11.9934 12.854 12.0109C12.8589 12.0284 12.8671 12.0448 12.8783 12.0591C13.0406 12.3457 13.2768 12.5837 13.5623 12.7481C13.5985 12.7731 13.6425 12.7844 13.6863 12.7801C13.8748 12.6388 14.0146 12.4424 14.0863 12.2181L14.0843 12.2221Z" fill="#FF6500"/>
<path d="M7.39818 10.326C8.14148 10.3368 8.87948 10.453 9.59018 10.671C9.70756 10.7022 9.81064 10.7728 9.88218 10.871C9.95383 10.9709 9.98912 11.0923 9.98218 11.215C9.98028 11.3345 9.93839 11.45 9.86318 11.543C9.78712 11.6366 9.6812 11.7012 9.56318 11.726C9.46371 11.746 9.36091 11.7423 9.26318 11.715C8.3642 11.4503 7.42119 11.369 6.49018 11.476C5.66121 11.5363 4.85463 11.7727 4.12419 12.1693C3.39376 12.5659 2.75626 13.1136 2.25418 13.776C1.76396 14.4242 1.49601 15.2133 1.49018 16.026C1.49959 16.1457 1.46999 16.2652 1.40582 16.3667C1.34165 16.4682 1.24635 16.5462 1.13418 16.589C1.03829 16.6308 0.931922 16.6422 0.82933 16.6219C0.726738 16.6015 0.632826 16.5502 0.56018 16.475C0.50089 16.417 0.454963 16.3468 0.425601 16.2693C0.39624 16.1917 0.384152 16.1087 0.39018 16.026C0.399936 14.9379 0.768297 13.8835 1.43818 13.026C2.42598 11.7543 3.832 10.8733 5.40718 10.539C6.05964 10.3869 6.7283 10.3153 7.39818 10.326Z" fill="#FF6500"/>
</svg>
