<svg width="13" height="15" viewBox="0 0 13 15" fill="none" xmlns="http://www.w3.org/2000/svg">
<path d="M7.10097 0.37793C7.33897 0.42893 7.58197 0.46393 7.81297 0.53293C8.56717 0.756829 9.22439 1.22741 9.67932 1.86928C10.1342 2.51115 10.3606 3.28714 10.322 4.07293C10.2932 4.74933 10.0712 5.4033 9.68215 5.95737C9.29312 6.51144 8.7534 6.94237 8.12696 7.1991C7.50052 7.45583 6.81361 7.5276 6.14764 7.4059C5.48166 7.2842 4.86452 6.97414 4.36937 6.51245C3.87421 6.05077 3.52178 5.45681 3.35384 4.80096C3.1859 4.14511 3.20949 3.45487 3.42182 2.81202C3.63415 2.16917 4.02632 1.60067 4.55184 1.17387C5.07737 0.74707 5.71424 0.479869 6.38697 0.40393C6.41337 0.397593 6.43914 0.388891 6.46397 0.37793H7.10097ZM6.79597 1.56193C6.20904 1.55969 5.64225 1.77579 5.20578 2.1682C4.76931 2.56061 4.49435 3.1013 4.43435 3.68516C4.37436 4.26902 4.53361 4.85433 4.88115 5.3273C5.22869 5.80028 5.73969 6.12713 6.31481 6.2443C6.88993 6.36148 7.48807 6.26061 7.99296 5.96132C8.49785 5.66202 8.87341 5.18567 9.04663 4.62488C9.21984 4.06409 9.17835 3.45893 8.9302 2.92703C8.68205 2.39513 8.24499 1.97451 7.70397 1.74693C7.41649 1.62591 7.10788 1.56304 6.79597 1.56193Z" fill="#FF6500"/>
<path d="M6.78995 8.6579C7.43095 8.6579 8.07295 8.6469 8.71295 8.6579C9.66885 8.69011 10.5834 9.05549 11.2984 9.69081C12.0133 10.3261 12.4836 11.1914 12.628 12.1369C12.6857 12.7615 12.7047 13.389 12.685 14.0159C12.6781 14.1585 12.618 14.2934 12.5165 14.3939C12.4151 14.4945 12.2797 14.5533 12.137 14.5589C11.9928 14.5681 11.8503 14.5235 11.7371 14.4337C11.6238 14.3439 11.5479 14.2154 11.524 14.0729C11.5133 13.9994 11.5083 13.9252 11.509 13.8509C11.497 13.3439 11.525 12.8319 11.467 12.3299C11.3688 11.6821 11.0565 11.086 10.5797 10.6366C10.103 10.1872 9.48937 9.91059 8.83695 9.8509C8.67195 9.8389 8.50395 9.8329 8.33695 9.8329C7.24829 9.8329 6.15962 9.8329 5.07095 9.8329C4.36367 9.81986 3.67525 10.0614 3.13118 10.5135C2.58711 10.9656 2.22361 11.5982 2.10695 12.2959C2.07872 12.4641 2.06467 12.6344 2.06495 12.8049C2.05895 13.1929 2.06495 13.5819 2.06495 13.9689C2.06555 14.1183 2.00924 14.2624 1.90745 14.3718C1.80566 14.4812 1.66604 14.5477 1.51695 14.5579C1.44268 14.5666 1.36741 14.5603 1.29562 14.5394C1.22383 14.5184 1.15699 14.4832 1.09906 14.4359C1.04113 14.3886 0.9933 14.3302 0.958409 14.264C0.923517 14.1979 0.902278 14.1254 0.895952 14.0509C0.805148 13.232 0.860336 12.4035 1.05895 11.6039C1.2806 10.8281 1.72843 10.136 2.34524 9.6159C2.96206 9.0958 3.71988 8.77133 4.52195 8.6839C4.71389 8.65883 4.90741 8.6478 5.10095 8.6509C5.66695 8.6509 6.22695 8.6509 6.78895 8.6509L6.78995 8.6579Z" fill="#FF6500"/>
</svg>
