<svg width="17" height="16" viewBox="0 0 17 16" fill="none" xmlns="http://www.w3.org/2000/svg">
<path d="M4.96406 1.77498C5.01606 1.17498 5.15306 0.963984 5.48606 0.958984C5.57728 0.951566 5.66857 0.972455 5.74749 1.0188C5.82641 1.06515 5.88911 1.1347 5.92706 1.21798C5.98665 1.39579 6.03048 1.5785 6.05806 1.76398H11.5291C11.5291 1.68298 11.5291 1.59998 11.5291 1.51798C11.5303 1.37875 11.5867 1.24568 11.686 1.14807C11.7853 1.05046 11.9193 0.99629 12.0586 0.997484C12.1978 0.998677 12.3309 1.05513 12.4285 1.15443C12.5261 1.25374 12.5803 1.38775 12.5791 1.52698V1.77298H14.3951C14.695 1.7751 14.9916 1.83721 15.2672 1.95566C15.5428 2.07411 15.7919 2.2465 15.9999 2.46268C16.2079 2.67886 16.3705 2.93447 16.4782 3.21446C16.5859 3.49444 16.6365 3.79315 16.6271 4.09298C16.6271 7.25832 16.6271 10.425 16.6271 13.593C16.6381 13.8927 16.5887 14.1915 16.4819 14.4717C16.3751 14.7519 16.2131 15.0078 16.0054 15.2241C15.7977 15.4404 15.5487 15.6128 15.2731 15.731C14.9975 15.8492 14.7009 15.9107 14.4011 15.912C10.6517 15.912 6.9024 15.912 3.15306 15.912C2.85254 15.9106 2.55536 15.8487 2.27927 15.73C2.00318 15.6113 1.75382 15.4382 1.54608 15.221C1.33834 15.0039 1.17646 14.7471 1.07011 14.466C0.963759 14.1849 0.91511 13.8853 0.927064 13.585C0.927064 10.4257 0.927064 7.26632 0.927064 4.10698C0.915623 3.80448 0.965369 3.50278 1.07332 3.21997C1.18127 2.93715 1.34521 2.67904 1.5553 2.4611C1.7654 2.24316 2.01733 2.06988 2.296 1.95164C2.57467 1.8334 2.87435 1.77263 3.17706 1.77298H4.77706L4.96406 1.77498ZM1.97506 6.45698V13.557C1.95805 13.7271 1.97808 13.8989 2.03378 14.0606C2.08949 14.2222 2.17954 14.3699 2.29775 14.4934C2.41596 14.6169 2.55952 14.7134 2.71856 14.7762C2.8776 14.8389 3.04835 14.8665 3.21906 14.857H14.3371C14.5078 14.8667 14.6786 14.8392 14.8378 14.7765C14.9969 14.7138 15.1405 14.6173 15.2588 14.4938C15.377 14.3702 15.4671 14.2225 15.5227 14.0607C15.5783 13.899 15.5983 13.7271 15.5811 13.557V6.45698H1.97506ZM12.5751 2.87498V3.10698C12.5801 3.17931 12.5704 3.2519 12.5466 3.32038C12.5228 3.38886 12.4854 3.45182 12.4366 3.50545C12.3879 3.55909 12.3287 3.60229 12.2628 3.63246C12.1969 3.66263 12.1255 3.67913 12.0531 3.68098C11.9804 3.67859 11.909 3.66163 11.843 3.63111C11.777 3.60059 11.7179 3.55714 11.669 3.50333C11.6201 3.44952 11.5826 3.38645 11.5585 3.31785C11.5345 3.24925 11.5245 3.17653 11.5291 3.10398C11.5291 3.02798 11.5291 2.95098 11.5291 2.87298H6.02906C6.02644 2.99368 6.01777 3.11416 6.00306 3.23398C5.98219 3.36561 5.91346 3.4849 5.81006 3.56898C5.70898 3.65115 5.57981 3.69061 5.45006 3.67898C5.32338 3.66618 5.20587 3.60707 5.12006 3.51298C5.03211 3.41658 4.98079 3.29236 4.97506 3.16198C4.97506 3.06698 4.97506 2.97298 4.97506 2.87298C4.29506 2.87298 3.63506 2.84198 2.97506 2.88298C2.72408 2.89795 2.48738 3.00474 2.31006 3.18298C2.12886 3.3662 2.01774 3.60721 1.99606 3.86398C1.94806 4.34998 1.98606 4.84498 1.98606 5.33898H15.5771C15.5771 4.86798 15.5981 4.40798 15.5721 3.95098C15.5615 3.6774 15.4516 3.41704 15.2629 3.21863C15.0743 3.02022 14.8198 2.89734 14.5471 2.87298C13.9001 2.83998 13.2471 2.86498 12.5801 2.86498L12.5751 2.87498Z" fill="#FF6500"/>
</svg>
