<svg width="17" height="17" viewBox="0 0 17 17" fill="none" xmlns="http://www.w3.org/2000/svg">
<path d="M6.01321 6.04403L5.66321 6.41003C5.61191 6.46869 5.54385 6.51021 5.46821 6.52899C5.39257 6.54776 5.31299 6.54289 5.24021 6.51503C4.60221 6.30203 3.96221 6.09203 3.32821 5.86903C3.22927 5.82953 3.14554 5.75946 3.08921 5.66903C2.44655 4.61036 1.80821 3.5497 1.17421 2.48703C1.14459 2.44939 1.12273 2.40624 1.1099 2.36009C1.09707 2.31394 1.09353 2.2657 1.09949 2.21816C1.10544 2.17063 1.12077 2.12476 1.14458 2.08319C1.16839 2.04163 1.20022 2.00521 1.23821 1.97603C1.65088 1.5567 2.06655 1.14037 2.48521 0.727032C2.51439 0.688711 2.55094 0.656615 2.59271 0.632636C2.63448 0.608657 2.68063 0.593279 2.72843 0.587409C2.77624 0.581538 2.82474 0.585293 2.87107 0.598452C2.9174 0.611611 2.96063 0.633909 2.99821 0.664032C4.05821 1.30003 5.12021 1.93503 6.17821 2.57903C6.27692 2.64415 6.35225 2.7391 6.39321 2.85003C6.61121 3.46803 6.81221 4.09203 7.02121 4.71403C7.05183 4.79151 7.0575 4.87661 7.03742 4.95746C7.01734 5.03832 6.97252 5.11088 6.90921 5.16503C6.79221 5.27403 6.68021 5.38603 6.55221 5.50803C6.59421 5.55403 6.62321 5.59503 6.65821 5.62903C7.72488 6.6997 8.79455 7.77037 9.86721 8.84103C9.93121 8.90503 9.97621 8.94703 10.0812 8.88503C10.5129 8.6068 11.0286 8.48912 11.5382 8.55254C12.0478 8.61597 12.5189 8.85648 12.8692 9.23203C13.6785 10.0374 14.4862 10.845 15.2922 11.655C15.5422 11.905 15.7922 12.155 16.0432 12.407C16.1742 12.5275 16.2787 12.6738 16.3502 12.8367C16.4217 12.9996 16.4586 13.1756 16.4586 13.3535C16.4586 13.5315 16.4217 13.7074 16.3502 13.8704C16.2787 14.0333 16.1742 14.1796 16.0432 14.3C15.6339 14.7147 15.2219 15.1267 14.8072 15.536C14.6872 15.6673 14.5411 15.7722 14.3783 15.8439C14.2156 15.9157 14.0396 15.9527 13.8617 15.9527C13.6838 15.9527 13.5079 15.9157 13.3451 15.8439C13.1823 15.7722 13.0362 15.6673 12.9162 15.536C11.8495 14.476 10.7872 13.414 9.72921 12.35C9.35824 11.9992 9.12145 11.5298 9.05973 11.023C8.99802 10.5161 9.11526 10.0036 9.39121 9.57403C9.43721 9.49803 9.44221 9.45203 9.37521 9.38403C8.27455 8.28737 7.17555 7.18836 6.07821 6.08703C6.05772 6.0704 6.03599 6.05536 6.01321 6.04203V6.04403ZM9.77421 10.807C9.79244 11.2013 9.96482 11.5726 10.2542 11.841C11.3095 12.8924 12.3629 13.9457 13.4142 15.001C13.4683 15.0686 13.537 15.1231 13.6152 15.1603C13.6933 15.1976 13.7789 15.2167 13.8654 15.2162C13.952 15.2157 14.0373 15.1957 14.115 15.1575C14.1928 15.1194 14.2608 15.0642 14.3142 14.996C14.7142 14.6014 15.1099 14.206 15.5012 13.81C15.5713 13.7568 15.628 13.688 15.6671 13.6092C15.7062 13.5303 15.7266 13.4435 15.7266 13.3555C15.7266 13.2675 15.7062 13.1807 15.6671 13.1019C15.628 13.023 15.5713 12.9543 15.5012 12.901C15.0785 12.4764 14.6549 12.0524 14.2302 11.629C13.5892 10.988 12.9522 10.34 12.3022 9.70603C12.0983 9.48999 11.8319 9.3431 11.5403 9.2859C11.2488 9.22871 10.9467 9.26406 10.6762 9.38703C10.4001 9.50483 10.1663 9.70363 10.0056 9.95718C9.84486 10.2107 9.76489 10.5071 9.77621 10.807H9.77421ZM1.93521 2.33503C2.49921 3.27503 3.06388 4.2137 3.62921 5.15103C3.66618 5.19886 3.71726 5.23385 3.77521 5.25103C4.23321 5.40803 4.69421 5.55703 5.15221 5.71503C5.18973 5.7335 5.2324 5.73871 5.27327 5.72981C5.31413 5.72091 5.35077 5.69843 5.37721 5.66603C5.63921 5.39537 5.90588 5.1287 6.17721 4.86603C6.21001 4.84013 6.23296 4.80378 6.24224 4.76303C6.25152 4.72228 6.24657 4.67958 6.22821 4.64203C6.07621 4.20003 5.93621 3.75403 5.77821 3.31403C5.74126 3.216 5.67445 3.13205 5.58721 3.07403C4.75921 2.57403 3.92621 2.07403 3.09421 1.57403C3.00721 1.52703 2.91921 1.47703 2.84221 1.43103L1.93521 2.33503Z" fill="#FF6500" stroke="#FF6500" stroke-width="0.5"/>
<path d="M14.474 9.26695L13.974 8.74995C14.6476 8.27998 15.1657 7.61982 15.4621 6.85385C15.7586 6.08787 15.8198 5.25091 15.638 4.44995C15.568 4.51495 15.523 4.54995 15.48 4.59495C14.7374 5.33695 13.9974 6.07761 13.26 6.81695C13.2022 6.87918 13.1316 6.92812 13.0531 6.96041C12.9745 6.99269 12.8899 7.00755 12.805 7.00395C12.034 6.99695 11.263 7.00395 10.492 7.00395C10.168 7.00395 10.045 6.88195 10.045 6.56095C10.045 5.77795 10.045 4.99595 10.045 4.21295C10.0431 4.1363 10.0576 4.06012 10.0876 3.98956C10.1177 3.919 10.1625 3.85571 10.219 3.80395C10.9584 3.06461 11.6967 2.32428 12.434 1.58295C12.477 1.53895 12.519 1.49295 12.565 1.44695C11.628 1.22007 10.6407 1.33765 9.7832 1.77825C8.92569 2.21884 8.25518 2.95307 7.89404 3.84695C7.78704 3.52595 7.68704 3.22695 7.58704 2.92595C7.57604 2.88795 7.61104 2.82595 7.63704 2.78895C7.98769 2.22676 8.45441 1.74599 9.00594 1.37881C9.55748 1.01164 10.1811 0.766549 10.835 0.659947C11.6656 0.507548 12.522 0.58465 13.312 0.882947C13.696 1.02295 13.758 1.29795 13.471 1.58295C12.607 2.44795 11.741 3.31095 10.881 4.18295C10.82 4.25196 10.7847 4.33991 10.781 4.43195C10.772 5.03695 10.781 5.64295 10.781 6.27795H10.95C11.51 6.27795 12.07 6.27795 12.63 6.27295C12.7227 6.26789 12.8107 6.23077 12.879 6.16795C13.7337 5.31128 14.588 4.45528 15.442 3.59995C15.756 3.28595 16.024 3.34295 16.175 3.75395C16.5184 4.70266 16.5534 5.73561 16.2748 6.70535C15.9963 7.6751 15.4186 8.53207 14.624 9.15395C14.576 9.18995 14.529 9.22295 14.474 9.26295V9.26695Z" fill="#FF6500" stroke="#FF6500" stroke-width="0.5"/>
<path d="M7.96008 11.116C8.01808 11.353 8.08308 11.589 8.12908 11.829C8.13088 11.8626 8.12568 11.8962 8.1138 11.9277C8.10192 11.9592 8.08363 11.9879 8.06008 12.012C7.38541 12.6933 6.70774 13.3723 6.02708 14.049C5.60708 14.469 5.19208 14.894 4.76508 15.307C4.49974 15.5871 4.16116 15.7871 3.78781 15.8843C3.41446 15.9815 3.02132 15.9721 2.65308 15.857C2.2783 15.7626 1.93817 15.5634 1.67252 15.2827C1.40687 15.002 1.22669 14.6514 1.15308 14.272C1.06318 13.9385 1.0629 13.5872 1.15228 13.2536C1.24165 12.92 1.41751 12.6159 1.66208 12.372C3.17308 10.839 4.70208 9.331 6.21508 7.823L6.74408 8.369C6.67994 8.40476 6.61963 8.44698 6.56408 8.495C5.13608 9.91833 3.71008 11.3433 2.28608 12.77C2.01798 13.0141 1.8544 13.3523 1.82943 13.7141C1.80446 14.0758 1.92001 14.4332 2.15202 14.7119C2.38403 14.9906 2.71461 15.169 3.07489 15.21C3.43518 15.251 3.79739 15.1514 4.08608 14.932C4.17133 14.865 4.25186 14.7921 4.32708 14.714C5.49041 13.5513 6.65308 12.3877 7.81508 11.223C7.85431 11.1736 7.88786 11.1199 7.91508 11.063L7.96008 11.116Z" fill="#FF6500" stroke="#FF6500" stroke-width="0.5"/>
</svg>
