<svg width="19" height="19" viewBox="0 0 19 19" fill="none" xmlns="http://www.w3.org/2000/svg">
<path d="M18.9382 18.8669H13.6152V11.0669H18.9382V18.8669ZM17.8562 12.1599H14.6932V13.3069H17.8562V12.1599ZM17.8562 16.6419H14.6872V17.7839H17.8562V16.6419ZM14.6882 14.3989V15.5389H17.8542V14.3989H14.6882Z" fill="#FF6500"/>
<path d="M15.3933 0.545898C15.4343 0.593898 15.4723 0.645898 15.5173 0.692898C16.1746 1.35157 16.8323 2.00957 17.4903 2.6669C17.5323 2.7089 17.5723 2.7519 17.5993 2.7809L16.8353 3.5459L15.9183 2.6229C15.9003 2.9769 15.8963 3.3029 15.8653 3.6229C15.7664 4.87826 15.4083 6.09948 14.8136 7.20947C14.2189 8.31946 13.4006 9.29411 12.4103 10.0719C10.7659 11.4186 8.69961 12.143 6.57427 12.1179C5.10127 12.1179 3.62727 12.1179 2.15427 12.1179H1.92627V11.0459H2.14627C3.73327 11.0459 5.32027 11.0659 6.90627 11.0319C8.57076 10.9719 10.1778 10.4079 11.5147 9.41449C12.8516 8.42113 13.8554 7.04524 14.3933 5.4689C14.698 4.56305 14.8445 3.61147 14.8263 2.6559L13.9123 3.5779L13.1263 2.7919L15.3583 0.545898H15.3933Z" fill="#FF6500"/>
<path d="M12.4262 13.3269V18.8589H7.11719V13.3269H12.4262ZM11.3542 16.6269H8.34819C8.27719 16.6269 8.18219 16.5979 8.18219 16.7269V17.7789H11.3552L11.3542 16.6269ZM11.3542 15.5419V14.4019H8.19219V15.5409L11.3542 15.5419Z" fill="#FF6500"/>
<path d="M5.92619 18.8608H0.617188V15.5608H5.92619V18.8608ZM4.85719 16.6398H1.69219V17.7848H4.85519L4.85719 16.6398Z" fill="#FF6500"/>
</svg>
