<svg width="19" height="12" viewBox="0 0 19 12" fill="none" xmlns="http://www.w3.org/2000/svg">
<path d="M6.74118 5.996C6.57512 5.81552 6.37446 5.67028 6.15113 5.56892C5.9278 5.46757 5.68636 5.41216 5.44118 5.406C4.86185 5.38733 4.28252 5.38733 3.70318 5.406C3.22286 5.42858 2.76864 5.63113 2.43086 5.97336C2.09308 6.31559 1.89649 6.77242 1.88018 7.253C1.87318 7.528 1.88018 7.804 1.87418 8.08C1.86497 8.12859 1.87506 8.17886 1.90233 8.22013C1.92959 8.2614 1.97187 8.29041 2.02018 8.301C2.55918 8.461 3.09518 8.633 3.63918 8.775C3.93918 8.855 4.10918 9.093 3.93918 9.303C3.89567 9.35067 3.84248 9.38851 3.78318 9.414C3.72382 9.43942 3.65976 9.45203 3.59518 9.451C2.81285 9.35221 2.05549 9.10982 1.36118 8.736C1.3166 8.70871 1.27868 8.67181 1.25018 8.628C1.22175 8.58495 1.2033 8.53609 1.19618 8.485C1.16726 7.98509 1.17528 7.48373 1.22018 6.985C1.27323 6.50852 1.46148 6.05715 1.7627 5.68417C2.06392 5.31119 2.46554 5.03216 2.92018 4.88L3.05818 4.823C2.82762 4.61506 2.64368 4.36066 2.51846 4.07655C2.39324 3.79244 2.32958 3.48504 2.33166 3.17456C2.33374 2.86409 2.40151 2.55757 2.53052 2.27515C2.65953 1.99274 2.84686 1.74084 3.08018 1.536C3.50255 1.15827 4.05237 0.954653 4.61889 0.966157C5.1854 0.977662 5.7265 1.20344 6.13318 1.598C6.35203 1.80407 6.52586 2.05321 6.64372 2.32974C6.76157 2.60627 6.82092 2.9042 6.818 3.20478C6.81509 3.50537 6.74999 3.80209 6.6268 4.07629C6.5036 4.35048 6.32498 4.59621 6.10218 4.798C6.33075 4.90084 6.55372 5.01566 6.77018 5.142C6.97852 5.292 7.1788 5.45289 7.37018 5.624L8.00118 5.41C7.62664 5.12383 7.32974 4.7484 7.13759 4.31799C6.94545 3.88758 6.86417 3.4159 6.90118 2.946C6.92795 2.57968 7.02847 2.22255 7.1967 1.89605C7.36494 1.56955 7.59742 1.28041 7.88018 1.046C8.43472 0.554681 9.15832 0.297815 9.89852 0.329527C10.6387 0.361239 11.3377 0.679053 11.8482 1.216C12.126 1.49933 12.3405 1.83849 12.4773 2.21098C12.6142 2.58348 12.6703 2.98081 12.6419 3.37663C12.6135 3.77245 12.5013 4.15772 12.3128 4.5069C12.1242 4.85608 11.8636 5.16119 11.5482 5.402L12.2012 5.629C12.5423 5.24325 12.9858 4.96205 13.4802 4.818C13.2148 4.58342 13.0101 4.28808 12.8837 3.95721C12.7573 3.62634 12.7128 3.26978 12.7542 2.918C12.8189 2.36125 13.0984 1.85176 13.5332 1.498C13.9565 1.13729 14.4992 0.947616 15.055 0.966114C15.6109 0.984611 16.1398 1.20995 16.5382 1.598C16.7588 1.80632 16.9339 2.05812 17.0523 2.33752C17.1707 2.61692 17.2299 2.91784 17.2262 3.22127C17.2224 3.5247 17.1558 3.82406 17.0305 4.10044C16.9052 4.37682 16.7239 4.62421 16.4982 4.827C16.9492 4.96848 17.356 5.22407 17.6792 5.569C18.1217 6.03779 18.3695 6.65732 18.3722 7.302C18.3772 7.669 18.3722 8.039 18.3722 8.402C18.3783 8.47987 18.3594 8.55766 18.3182 8.624C18.2766 8.69064 18.215 8.74243 18.1422 8.772C17.4902 9.09877 16.7933 9.3266 16.0742 9.448C16.0382 9.454 16.0032 9.458 15.9672 9.461C15.9219 9.47064 15.875 9.47071 15.8297 9.46121C15.7843 9.45171 15.7414 9.43285 15.7038 9.40584C15.6661 9.37883 15.6346 9.34426 15.611 9.30433C15.5875 9.26441 15.5726 9.22002 15.5672 9.174C15.5618 9.12797 15.5656 9.08132 15.5784 9.03678C15.5912 8.99224 15.6128 8.9507 15.6418 8.91458C15.6709 8.87846 15.7068 8.84848 15.7476 8.82641C15.7883 8.80433 15.8331 8.7906 15.8792 8.786C16.2792 8.686 16.6892 8.609 17.0792 8.486C17.6862 8.286 17.6902 8.274 17.6792 7.642C17.6896 7.34614 17.6586 7.05029 17.5872 6.763C17.4969 6.40336 17.2953 6.08142 17.0112 5.84312C16.7271 5.60482 16.375 5.46234 16.0052 5.436C15.3133 5.38813 14.619 5.38813 13.9272 5.436C13.5026 5.47346 13.1087 5.67291 12.8272 5.993C12.9922 6.148 13.1562 6.285 13.2992 6.441C13.6008 6.76614 13.8348 7.14791 13.9878 7.56418C14.1407 7.98045 14.2095 8.42294 14.1902 8.866C14.1822 9.282 14.1902 9.7 14.1972 10.116C14.2057 10.2042 14.1855 10.2927 14.1396 10.3684C14.0936 10.4441 14.0244 10.5029 13.9422 10.536C12.6548 11.2049 11.2249 11.5527 9.7741 11.5498C8.32334 11.5468 6.89479 11.1932 5.61018 10.519C5.55035 10.487 5.49855 10.4419 5.45871 10.387C5.41887 10.332 5.39202 10.2688 5.38018 10.202C5.36318 9.631 5.36518 9.058 5.39518 8.487C5.41839 8.02159 5.54192 7.5667 5.75733 7.15349C5.97274 6.74029 6.27492 6.37853 6.64318 6.093C6.67118 6.063 6.70018 6.034 6.74318 5.993L6.74118 5.996ZM9.78018 5.991V6.026C9.42318 6.026 9.06518 6.026 8.70718 6.026C8.10092 6.03076 7.51469 6.24366 7.04666 6.62905C6.57862 7.01443 6.25719 7.54891 6.13618 8.143C6.06981 8.72415 6.04741 9.30948 6.06918 9.894C6.06918 9.947 6.14518 10.025 6.20418 10.052C7.31961 10.5875 8.54085 10.8663 9.77816 10.8678C11.0155 10.8694 12.2374 10.5937 13.3542 10.061C13.4034 10.0431 13.4448 10.0087 13.4714 9.96364C13.498 9.91859 13.5082 9.86571 13.5002 9.814C13.4912 9.433 13.4882 9.052 13.4852 8.671C13.4885 8.06922 13.2831 7.48491 12.9037 7.01771C12.5244 6.5505 11.9948 6.22935 11.4052 6.109C10.8667 6.03399 10.3239 5.99458 9.78018 5.991ZM9.78018 1.017C9.20643 1.02099 8.65676 1.24817 8.2476 1.65042C7.83845 2.05267 7.60194 2.59839 7.58818 3.172C7.58739 3.75362 7.81767 4.31173 8.22838 4.72356C8.63908 5.13539 9.19656 5.3672 9.77818 5.368C10.3598 5.36879 10.9179 5.13851 11.3297 4.7278C11.7416 4.3171 11.9734 3.75962 11.9742 3.178C11.962 2.603 11.7258 2.05546 11.3161 1.65188C10.9064 1.24829 10.3553 1.02051 9.78018 1.017ZM4.57018 4.717C4.98117 4.71844 5.37625 4.55825 5.67018 4.271C5.81584 4.13052 5.93169 3.96213 6.01082 3.77589C6.08995 3.58964 6.13073 3.38936 6.13073 3.187C6.13073 2.98464 6.08995 2.78436 6.01082 2.59811C5.93169 2.41186 5.81584 2.24347 5.67018 2.103C5.37886 1.8147 4.98555 1.65298 4.57568 1.65298C4.16582 1.65298 3.77251 1.8147 3.48118 2.103C3.19227 2.38637 3.02695 2.77236 3.02118 3.177C3.02071 3.37883 3.06048 3.57872 3.13818 3.765C3.21604 3.95223 3.33024 4.12218 3.47418 4.265C3.76693 4.5549 4.16218 4.71768 4.57418 4.718L4.57018 4.717ZM14.9752 4.717C15.1807 4.71861 15.3846 4.67988 15.5752 4.603C15.7639 4.52684 15.9358 4.41438 16.0812 4.272C16.2262 4.12947 16.3415 3.9595 16.4202 3.772C16.4988 3.58625 16.5396 3.3867 16.5402 3.185C16.5392 2.98224 16.4981 2.7817 16.4191 2.59495C16.3402 2.4082 16.225 2.23895 16.0802 2.097C15.7884 1.80535 15.3927 1.64151 14.9802 1.64151C14.5676 1.64151 14.172 1.80535 13.8802 2.097C13.7358 2.23769 13.621 2.40586 13.5427 2.5916C13.4643 2.77735 13.424 2.9769 13.424 3.1785C13.424 3.38009 13.4643 3.57965 13.5427 3.76539C13.621 3.95114 13.7358 4.11931 13.8802 4.26C14.1716 4.54571 14.5631 4.70644 14.9712 4.708L14.9752 4.717Z" fill="white" stroke="white" stroke-width="0.5"/>
</svg>
