<svg width="16" height="18" viewBox="0 0 16 18" fill="none" xmlns="http://www.w3.org/2000/svg">
<path d="M12.437 7.50203V4.83603C12.4456 4.62676 12.4099 4.41805 12.3322 4.22355C12.2545 4.02905 12.1366 3.85316 11.9862 3.7074C11.8358 3.56163 11.6563 3.44928 11.4595 3.3777C11.2626 3.30612 11.0529 3.27692 10.844 3.29203H8.67501L8.68801 3.48403C8.73025 3.7965 8.68967 4.11458 8.57033 4.40644C8.45099 4.69829 8.25708 4.95368 8.00801 5.14703C7.67231 5.41275 7.25035 5.54522 6.82301 5.51903C6.57338 5.51092 6.32833 5.44974 6.10418 5.33956C5.88003 5.22938 5.68191 5.07273 5.52301 4.88003C5.36573 4.68842 5.24958 4.46647 5.1818 4.22802C5.11401 3.98958 5.09605 3.73972 5.12901 3.49403L5.14401 3.30903L4.95401 3.30003H4.89901C4.86601 3.30003 4.83301 3.30003 4.79901 3.30003H4.32401C3.86201 3.30003 3.38401 3.30003 2.91401 3.30003C2.71466 3.29076 2.51552 3.32229 2.32879 3.39269C2.14206 3.46308 1.97166 3.57086 1.82805 3.70943C1.68443 3.84799 1.57061 4.01441 1.49357 4.1985C1.41653 4.3826 1.37789 4.58048 1.38001 4.78003C1.38001 7.95603 1.38001 11.173 1.38001 14.341C1.37751 14.5386 1.41502 14.7346 1.4903 14.9173C1.56557 15.1 1.67705 15.2656 1.81801 15.404C2.11549 15.6831 2.51022 15.8349 2.91801 15.827H4.65901C5.25901 15.827 5.88001 15.827 6.49001 15.827C6.5687 15.8251 6.64676 15.8416 6.71801 15.875C6.78855 15.9081 6.85023 15.9575 6.89801 16.019C6.94119 16.0779 6.96903 16.1467 6.97901 16.219C6.98968 16.2896 6.98281 16.3617 6.95901 16.429C6.92433 16.5261 6.85883 16.6091 6.77252 16.6655C6.68621 16.7218 6.58382 16.7483 6.48101 16.741H5.84501C4.86101 16.741 3.84501 16.741 2.84501 16.736C2.63217 16.7321 2.4206 16.7022 2.21501 16.647C1.71514 16.5179 1.27106 16.2292 0.950168 15.8247C0.62928 15.4203 0.449111 14.9222 0.437012 14.406C0.437012 10.603 0.437012 7.51903 0.437012 4.70203C0.452967 4.07857 0.712703 3.48621 1.16047 3.05209C1.60824 2.61797 2.20836 2.37668 2.83201 2.38003C3.08401 2.38003 3.33901 2.38003 3.59201 2.38003H5.12601V2.19303C5.12601 2.11103 5.12601 2.03003 5.12601 1.95203C5.13373 1.77441 5.1324 1.59651 5.12201 1.41903C5.09368 1.28823 5.11347 1.15159 5.17776 1.03421C5.24206 0.916833 5.34653 0.826582 5.47201 0.780029L8.32001 0.780029C8.44656 0.816575 8.55487 0.899099 8.6237 1.0114C8.69253 1.12371 8.71689 1.25768 8.69201 1.38703C8.68201 1.57103 8.68401 1.74903 8.68701 1.93803C8.68701 2.02303 8.68701 2.10703 8.68701 2.19303V2.37403H10.913C11.232 2.36713 11.5491 2.42356 11.8462 2.54005C12.1432 2.65654 12.4142 2.83077 12.6434 3.05266C12.8726 3.27455 13.0556 3.53971 13.1817 3.83277C13.3078 4.12584 13.3745 4.44101 13.378 4.76003C13.378 5.58603 13.378 6.47803 13.378 7.56003C13.3802 7.67608 13.3387 7.78872 13.2619 7.87573C13.1851 7.96274 13.0784 8.01779 12.963 8.03003C12.8497 8.04305 12.7354 8.01502 12.641 7.95103C12.5481 7.88814 12.4818 7.79299 12.455 7.68403C12.4423 7.62422 12.4362 7.56318 12.437 7.50203ZM7.74801 2.40203V1.95403C7.74775 1.92016 7.7427 1.88649 7.73301 1.85403C7.73234 1.84838 7.73234 1.84268 7.73301 1.83703L7.70101 1.69703H6.08801L6.07501 1.86303C6.07501 1.87503 6.07501 1.88603 6.07501 1.89503C6.07376 1.91868 6.07376 1.94238 6.07501 1.96603V3.79803C6.07519 3.86079 6.08325 3.92328 6.09901 3.98403C6.14549 4.16271 6.25127 4.32031 6.39901 4.43103C6.54763 4.54421 6.7292 4.60567 6.91601 4.60603C6.94401 4.60603 6.97101 4.60603 6.99901 4.60603C7.20557 4.58643 7.39791 4.49222 7.54001 4.34103C7.67981 4.19231 7.75807 3.99614 7.75901 3.79203C7.75901 3.32903 7.75901 2.85903 7.75901 2.40503L7.74801 2.40203Z" fill="#FF6500" stroke="#FF6500" stroke-width="0.6"/>
<path d="M15.1182 13.0592C15.1191 13.5428 15.0215 14.0216 14.8312 14.4662C14.6392 14.9139 14.3593 15.3185 14.0082 15.6562C13.6557 16.0004 13.2392 16.2722 12.7822 16.4562C12.3217 16.642 11.8297 16.7371 11.3332 16.7362C10.3456 16.7485 9.3934 16.3688 8.68525 15.6803C7.97709 14.9919 7.57072 14.0507 7.55519 13.0632C7.55407 12.5789 7.65173 12.0995 7.84219 11.6542C8.03435 11.2057 8.31455 10.8004 8.66619 10.4622C9.01761 10.1181 9.43312 9.84631 9.88919 9.6622C10.3486 9.47807 10.8392 9.38436 11.3342 9.3862H11.3412C12.3281 9.37575 13.2792 9.75607 13.9868 10.4442C14.6944 11.1323 15.1011 12.0723 15.1182 13.0592ZM13.9552 14.1252C14.0993 13.7914 14.1739 13.4318 14.1742 13.0682C14.1644 12.3282 13.8627 11.622 13.3347 11.1033C12.8068 10.5847 12.0953 10.2957 11.3552 10.2992H11.3412C10.9693 10.2979 10.6006 10.3682 10.2552 10.5062C9.91166 10.6441 9.59845 10.848 9.33319 11.1062C9.06941 11.3585 8.85892 11.6611 8.71419 11.9962C8.57166 12.3295 8.49751 12.6879 8.49614 13.0504C8.49476 13.4128 8.56619 13.7719 8.70619 14.1062C8.84885 14.4441 9.05761 14.7501 9.32019 15.0062C9.58366 15.2643 9.89521 15.4681 10.2372 15.6062C10.582 15.7466 10.9508 15.819 11.3232 15.8192H11.3302C11.7022 15.8202 12.0709 15.7495 12.4162 15.6112C12.7594 15.4732 13.0722 15.2693 13.3372 15.0112C13.6001 14.7596 13.8102 14.459 13.9552 14.1252Z" fill="#FF6500"/>
<path d="M11.8063 12.4243V12.6063H12.1063C12.1783 12.6063 12.2403 12.6063 12.3003 12.6063C12.4204 12.6102 12.5346 12.6591 12.6203 12.7433C12.7043 12.826 12.7528 12.9383 12.7553 13.0563C12.7556 13.1154 12.7442 13.1741 12.7217 13.2289C12.6992 13.2836 12.6661 13.3334 12.6243 13.3753C12.5384 13.4613 12.4228 13.511 12.3013 13.5143C12.0013 13.5203 11.6833 13.5213 11.3263 13.5143C11.2653 13.5146 11.2049 13.5031 11.1483 13.4803C11.0922 13.4572 11.0412 13.4232 10.9983 13.3803C10.9553 13.3382 10.9213 13.2879 10.8983 13.2323C10.876 13.1784 10.8648 13.1206 10.8653 13.0623C10.8653 12.6503 10.8653 12.2243 10.8653 11.7623C10.8642 11.7007 10.8756 11.6395 10.8988 11.5825C10.9219 11.5254 10.9564 11.4736 11.0002 11.4303C11.0439 11.3869 11.096 11.3529 11.1532 11.3302C11.2105 11.3075 11.2717 11.2966 11.3333 11.2983C11.3944 11.2973 11.4552 11.3085 11.5119 11.3312C11.5687 11.3539 11.6205 11.3875 11.6642 11.4303C11.7079 11.4731 11.7427 11.5241 11.7665 11.5804C11.7904 11.6367 11.8029 11.6971 11.8033 11.7583C11.8033 11.9033 11.8033 12.0493 11.8033 12.2033C11.8033 12.2753 11.8033 12.3483 11.8033 12.4243H11.8063Z" fill="#FF6500"/>
</svg>
