<svg width="17" height="17" viewBox="0 0 17 17" fill="none" xmlns="http://www.w3.org/2000/svg">
<path d="M6.01321 6.44613L5.66321 6.81213C5.61191 6.87079 5.54385 6.91231 5.46821 6.93109C5.39257 6.94986 5.31299 6.94499 5.24021 6.91713C4.60221 6.70413 3.96221 6.49413 3.32821 6.27113C3.22927 6.23163 3.14554 6.16156 3.08921 6.07113C2.44655 5.01246 1.80821 3.9518 1.17421 2.88913C1.14459 2.85149 1.12273 2.80834 1.1099 2.76219C1.09707 2.71604 1.09353 2.6678 1.09949 2.62026C1.10544 2.57273 1.12077 2.52686 1.14458 2.48529C1.16839 2.44373 1.20022 2.40731 1.23821 2.37813C1.65088 1.9588 2.06655 1.54246 2.48521 1.12913C2.51439 1.09081 2.55094 1.05871 2.59271 1.03474C2.63448 1.01076 2.68063 0.995379 2.72843 0.989508C2.77624 0.983637 2.82474 0.987392 2.87107 1.00055C2.9174 1.01371 2.96063 1.03601 2.99821 1.06613C4.05821 1.70213 5.12021 2.33713 6.17821 2.98113C6.27692 3.04625 6.35225 3.1412 6.39321 3.25213C6.61121 3.87013 6.81221 4.49413 7.02121 5.11613C7.05183 5.19361 7.0575 5.27871 7.03742 5.35956C7.01734 5.44042 6.97252 5.51298 6.90921 5.56713C6.79221 5.67613 6.68021 5.78813 6.55221 5.91013C6.59421 5.95613 6.62321 5.99713 6.65821 6.03113C7.72488 7.1018 8.79455 8.17246 9.86721 9.24313C9.93121 9.30713 9.97621 9.34913 10.0812 9.28713C10.5129 9.0089 11.0286 8.89121 11.5382 8.95464C12.0478 9.01807 12.5189 9.25858 12.8692 9.63413C13.6785 10.4395 14.4862 11.2471 15.2922 12.0571C15.5422 12.3071 15.7922 12.5571 16.0432 12.8091C16.1742 12.9296 16.2787 13.0759 16.3502 13.2388C16.4217 13.4017 16.4586 13.5777 16.4586 13.7556C16.4586 13.9336 16.4217 14.1095 16.3502 14.2725C16.2787 14.4354 16.1742 14.5817 16.0432 14.7021C15.6339 15.1168 15.2219 15.5288 14.8072 15.9381C14.6872 16.0694 14.5411 16.1743 14.3783 16.246C14.2156 16.3178 14.0396 16.3548 13.8617 16.3548C13.6838 16.3548 13.5079 16.3178 13.3451 16.246C13.1823 16.1743 13.0362 16.0694 12.9162 15.9381C11.8495 14.8781 10.7872 13.8161 9.72921 12.7521C9.35824 12.4013 9.12145 11.9319 9.05973 11.4251C8.99802 10.9182 9.11526 10.4057 9.39121 9.97613C9.43721 9.90013 9.44221 9.85413 9.37521 9.78613C8.27455 8.68947 7.17555 7.59046 6.07821 6.48913C6.05772 6.4725 6.03599 6.45746 6.01321 6.44413V6.44613ZM9.77421 11.2091C9.79244 11.6034 9.96482 11.9747 10.2542 12.2431C11.3095 13.2945 12.3629 14.3478 13.4142 15.4031C13.4683 15.4707 13.537 15.5252 13.6152 15.5624C13.6933 15.5997 13.7789 15.6188 13.8654 15.6183C13.952 15.6178 14.0373 15.5978 14.115 15.5596C14.1928 15.5215 14.2608 15.4663 14.3142 15.3981C14.7142 15.0035 15.1099 14.6081 15.5012 14.2121C15.5713 14.1589 15.628 14.0901 15.6671 14.0113C15.7062 13.9324 15.7266 13.8456 15.7266 13.7576C15.7266 13.6696 15.7062 13.5828 15.6671 13.504C15.628 13.4251 15.5713 13.3564 15.5012 13.3031C15.0785 12.8785 14.6549 12.4545 14.2302 12.0311C13.5892 11.3901 12.9522 10.7421 12.3022 10.1081C12.0983 9.89209 11.8319 9.7452 11.5403 9.688C11.2488 9.63081 10.9467 9.66616 10.6762 9.78913C10.4001 9.90693 10.1663 10.1057 10.0056 10.3593C9.84486 10.6128 9.76489 10.9092 9.77621 11.2091H9.77421ZM1.93521 2.73713C2.49921 3.67713 3.06388 4.6158 3.62921 5.55313C3.66618 5.60096 3.71726 5.63595 3.77521 5.65313C4.23321 5.81013 4.69421 5.95913 5.15221 6.11713C5.18973 6.1356 5.2324 6.1408 5.27327 6.13191C5.31413 6.12301 5.35077 6.10053 5.37721 6.06813C5.63921 5.79746 5.90588 5.5308 6.17721 5.26813C6.21001 5.24223 6.23296 5.20588 6.24224 5.16513C6.25152 5.12438 6.24657 5.08168 6.22821 5.04413C6.07621 4.60213 5.93621 4.15613 5.77821 3.71613C5.74126 3.6181 5.67445 3.53415 5.58721 3.47613C4.75921 2.97613 3.92621 2.47613 3.09421 1.97613C3.00721 1.92913 2.91921 1.87913 2.84221 1.83313L1.93521 2.73713Z" fill="#FF6500" stroke="#FF6500" stroke-width="0.5"/>
<path d="M14.474 9.66905L13.974 9.15205C14.6476 8.68208 15.1657 8.02192 15.4621 7.25594C15.7586 6.48997 15.8198 5.65301 15.638 4.85205C15.568 4.91705 15.523 4.95205 15.48 4.99705C14.7374 5.73905 13.9974 6.47971 13.26 7.21905C13.2022 7.28128 13.1316 7.33022 13.0531 7.36251C12.9745 7.39479 12.8899 7.40965 12.805 7.40605C12.034 7.39905 11.263 7.40605 10.492 7.40605C10.168 7.40605 10.045 7.28405 10.045 6.96305C10.045 6.18005 10.045 5.39805 10.045 4.61505C10.0431 4.53839 10.0576 4.46222 10.0876 4.39166C10.1177 4.3211 10.1625 4.25781 10.219 4.20605C10.9584 3.46671 11.6967 2.72638 12.434 1.98505C12.477 1.94105 12.519 1.89505 12.565 1.84905C11.628 1.62217 10.6407 1.73975 9.7832 2.18035C8.92569 2.62094 8.25518 3.35517 7.89404 4.24905C7.78704 3.92805 7.68704 3.62905 7.58704 3.32805C7.57604 3.29005 7.61104 3.22805 7.63704 3.19105C7.98769 2.62886 8.45441 2.14809 9.00594 1.78091C9.55748 1.41374 10.1811 1.16865 10.835 1.06205C11.6656 0.909647 12.522 0.986749 13.312 1.28505C13.696 1.42505 13.758 1.70005 13.471 1.98505C12.607 2.85005 11.741 3.71305 10.881 4.58505C10.82 4.65406 10.7847 4.74201 10.781 4.83405C10.772 5.43905 10.781 6.04505 10.781 6.68005H10.95C11.51 6.68005 12.07 6.68005 12.63 6.67505C12.7227 6.66999 12.8107 6.63287 12.879 6.57005C13.7337 5.71338 14.588 4.85738 15.442 4.00205C15.756 3.68805 16.024 3.74505 16.175 4.15605C16.5184 5.10476 16.5534 6.13771 16.2748 7.10745C15.9963 8.0772 15.4186 8.93417 14.624 9.55605C14.576 9.59205 14.529 9.62505 14.474 9.66505V9.66905Z" fill="#FF6500" stroke="#FF6500" stroke-width="0.5"/>
<path d="M7.96008 11.5181C8.01808 11.7551 8.08308 11.9911 8.12908 12.2311C8.13088 12.2647 8.12568 12.2983 8.1138 12.3298C8.10192 12.3613 8.08363 12.39 8.06008 12.4141C7.38541 13.0954 6.70774 13.7744 6.02708 14.4511C5.60708 14.8711 5.19208 15.2961 4.76508 15.7091C4.49974 15.9892 4.16116 16.1892 3.78781 16.2864C3.41446 16.3836 3.02132 16.3742 2.65308 16.2591C2.2783 16.1647 1.93817 15.9655 1.67252 15.6848C1.40687 15.4041 1.22669 15.0535 1.15308 14.6741C1.06318 14.3406 1.0629 13.9893 1.15228 13.6557C1.24165 13.3221 1.41751 13.018 1.66208 12.7741C3.17308 11.2411 4.70208 9.7331 6.21508 8.2251L6.74408 8.7711C6.67994 8.80686 6.61963 8.84908 6.56408 8.8971C5.13608 10.3204 3.71008 11.7454 2.28608 13.1721C2.01798 13.4162 1.8544 13.7544 1.82943 14.1162C1.80446 14.4779 1.92001 14.8353 2.15202 15.114C2.38403 15.3927 2.71461 15.5711 3.07489 15.6121C3.43518 15.6531 3.79739 15.5535 4.08608 15.3341C4.17133 15.2671 4.25186 15.1942 4.32708 15.1161C5.49041 13.9534 6.65308 12.7898 7.81508 11.6251C7.85431 11.5757 7.88786 11.522 7.91508 11.4651L7.96008 11.5181Z" fill="#FF6500" stroke="#FF6500" stroke-width="0.5"/>
</svg>
