<svg width="16" height="17" viewBox="0 0 16 17" fill="none" xmlns="http://www.w3.org/2000/svg">
<path d="M12.437 7.01595V4.34995C12.4456 4.14068 12.4099 3.93196 12.3322 3.73747C12.2545 3.54297 12.1366 3.36708 11.9862 3.22131C11.8358 3.07555 11.6563 2.96319 11.4595 2.89161C11.2626 2.82003 11.0529 2.79084 10.844 2.80595H8.67501L8.68801 2.99795C8.73025 3.31041 8.68967 3.6285 8.57033 3.92035C8.45099 4.21221 8.25708 4.46759 8.00801 4.66095C7.67231 4.92667 7.25035 5.05913 6.82301 5.03295C6.57338 5.02484 6.32833 4.96366 6.10418 4.85348C5.88003 4.7433 5.68191 4.58665 5.52301 4.39395C5.36573 4.20233 5.24958 3.98039 5.1818 3.74194C5.11401 3.50349 5.09605 3.25364 5.12901 3.00795L5.14401 2.82295L4.95401 2.81395H4.89901C4.86601 2.81395 4.83301 2.81395 4.79901 2.81395H4.32401C3.86201 2.81395 3.38401 2.81395 2.91401 2.81395C2.71466 2.80468 2.51552 2.83621 2.32879 2.9066C2.14206 2.977 1.97166 3.08478 1.82805 3.22334C1.68443 3.3619 1.57061 3.52833 1.49357 3.71242C1.41653 3.89651 1.37789 4.09439 1.38001 4.29395C1.38001 7.46995 1.38001 10.6869 1.38001 13.8549C1.37751 14.0525 1.41502 14.2486 1.4903 14.4312C1.56557 14.6139 1.67705 14.7795 1.81801 14.9179C2.11549 15.197 2.51022 15.3488 2.91801 15.3409H4.65901C5.25901 15.3409 5.88001 15.3409 6.49001 15.3409C6.5687 15.3391 6.64676 15.3555 6.71801 15.3889C6.78855 15.422 6.85023 15.4714 6.89801 15.5329C6.94119 15.5919 6.96903 15.6606 6.97901 15.7329C6.98968 15.8035 6.98281 15.8756 6.95901 15.9429C6.92433 16.04 6.85883 16.1231 6.77252 16.1794C6.68621 16.2357 6.58382 16.2623 6.48101 16.2549H5.84501C4.86101 16.2549 3.84501 16.2549 2.84501 16.2499C2.63217 16.2461 2.4206 16.2162 2.21501 16.1609C1.71514 16.0318 1.27106 15.7431 0.950168 15.3386C0.62928 14.9342 0.449111 14.4361 0.437012 13.9199C0.437012 10.1169 0.437012 7.03295 0.437012 4.21595C0.452967 3.59248 0.712703 3.00012 1.16047 2.566C1.60824 2.13188 2.20836 1.8906 2.83201 1.89395C3.08401 1.89395 3.33901 1.89395 3.59201 1.89395H5.12601V1.70695C5.12601 1.62495 5.12601 1.54395 5.12601 1.46595C5.13373 1.28833 5.1324 1.11043 5.12201 0.932945C5.09368 0.802144 5.11347 0.665511 5.17776 0.54813C5.24206 0.430749 5.34653 0.340498 5.47201 0.293945L8.32001 0.293945C8.44656 0.330491 8.55487 0.413015 8.6237 0.52532C8.69253 0.637625 8.71689 0.771599 8.69201 0.900945C8.68201 1.08495 8.68401 1.26295 8.68701 1.45195C8.68701 1.53695 8.68701 1.62095 8.68701 1.70695V1.88795H10.913C11.232 1.88105 11.5491 1.93748 11.8462 2.05397C12.1432 2.17045 12.4142 2.34468 12.6434 2.56658C12.8726 2.78847 13.0556 3.05362 13.1817 3.34669C13.3078 3.63976 13.3745 3.95492 13.378 4.27395C13.378 5.09995 13.378 5.99195 13.378 7.07395C13.3802 7.19 13.3387 7.30264 13.2619 7.38965C13.1851 7.47665 13.0784 7.53171 12.963 7.54395C12.8497 7.55696 12.7354 7.52893 12.641 7.46495C12.5481 7.40205 12.4818 7.30691 12.455 7.19795C12.4423 7.13813 12.4362 7.07709 12.437 7.01595ZM7.74801 1.91595V1.46795C7.74775 1.43407 7.7427 1.4004 7.73301 1.36795C7.73234 1.3623 7.73234 1.35659 7.73301 1.35095L7.70101 1.21095H6.08801L6.07501 1.37695C6.07501 1.38895 6.07501 1.39995 6.07501 1.40895C6.07376 1.4326 6.07376 1.4563 6.07501 1.47995V3.31195C6.07519 3.37471 6.08325 3.4372 6.09901 3.49795C6.14549 3.67662 6.25127 3.83423 6.39901 3.94495C6.54763 4.05813 6.7292 4.11959 6.91601 4.11995C6.94401 4.11995 6.97101 4.11995 6.99901 4.11995C7.20557 4.10035 7.39791 4.00614 7.54001 3.85495C7.67981 3.70623 7.75807 3.51006 7.75901 3.30595C7.75901 2.84295 7.75901 2.37295 7.75901 1.91895L7.74801 1.91595Z" fill="#FF6500" stroke="#FF6500" stroke-width="0.6"/>
<path d="M15.1182 12.5731C15.1191 13.0567 15.0215 13.5355 14.8312 13.9801C14.6392 14.4278 14.3593 14.8325 14.0082 15.1701C13.6557 15.5144 13.2392 15.7862 12.7822 15.9701C12.3217 16.1559 11.8297 16.251 11.3332 16.2501C10.3456 16.2624 9.3934 15.8827 8.68525 15.1942C7.97709 14.5058 7.57072 13.5647 7.55519 12.5771C7.55407 12.0928 7.65173 11.6134 7.84219 11.1681C8.03435 10.7197 8.31455 10.3143 8.66619 9.97611C9.01761 9.63202 9.43312 9.36022 9.88919 9.17611C10.3486 8.99199 10.8392 8.89828 11.3342 8.90011H11.3412C12.3281 8.88967 13.2792 9.26999 13.9868 9.9581C14.6944 10.6462 15.1011 11.5863 15.1182 12.5731ZM13.9552 13.6391C14.0993 13.3053 14.1739 12.9457 14.1742 12.5821C14.1644 11.8421 13.8627 11.1359 13.3347 10.6173C12.8068 10.0986 12.0953 9.80962 11.3552 9.81311H11.3412C10.9693 9.81183 10.6006 9.88211 10.2552 10.0201C9.91166 10.1581 9.59845 10.3619 9.33319 10.6201C9.06941 10.8724 8.85892 11.175 8.71419 11.5101C8.57166 11.8434 8.49751 12.2019 8.49614 12.5643C8.49476 12.9268 8.56619 13.2858 8.70619 13.6201C8.84885 13.958 9.05761 14.264 9.32019 14.5201C9.58366 14.7782 9.89521 14.982 10.2372 15.1201C10.582 15.2606 10.9508 15.3329 11.3232 15.3331H11.3302C11.7022 15.3341 12.0709 15.2635 12.4162 15.1251C12.7594 14.9871 13.0722 14.7832 13.3372 14.5251C13.6001 14.2735 13.8102 13.9729 13.9552 13.6391Z" fill="#FF6500"/>
<path d="M11.8063 11.9382V12.1202H12.1063C12.1783 12.1202 12.2403 12.1202 12.3003 12.1202C12.4204 12.1241 12.5346 12.173 12.6203 12.2572C12.7043 12.3399 12.7528 12.4522 12.7553 12.5702C12.7556 12.6294 12.7442 12.688 12.7217 12.7428C12.6992 12.7975 12.6661 12.8473 12.6243 12.8892C12.5384 12.9752 12.4228 13.025 12.3013 13.0282C12.0013 13.0342 11.6833 13.0352 11.3263 13.0282C11.2653 13.0285 11.2049 13.017 11.1483 12.9942C11.0922 12.9711 11.0412 12.9371 10.9983 12.8942C10.9553 12.8521 10.9213 12.8018 10.8983 12.7462C10.876 12.6923 10.8648 12.6345 10.8653 12.5762C10.8653 12.1642 10.8653 11.7382 10.8653 11.2762C10.8642 11.2146 10.8756 11.1534 10.8988 11.0964C10.9219 11.0393 10.9564 10.9876 11.0002 10.9442C11.0439 10.9008 11.096 10.8668 11.1532 10.8441C11.2105 10.8214 11.2717 10.8105 11.3333 10.8122C11.3944 10.8112 11.4552 10.8224 11.5119 10.8451C11.5687 10.8678 11.6205 10.9015 11.6642 10.9442C11.7079 10.987 11.7427 11.038 11.7665 11.0943C11.7904 11.1506 11.8029 11.211 11.8033 11.2722C11.8033 11.4172 11.8033 11.5632 11.8033 11.7172C11.8033 11.7892 11.8033 11.8622 11.8033 11.9382H11.8063Z" fill="#FF6500"/>
</svg>
