<svg width="13" height="16" viewBox="0 0 13 16" fill="none" xmlns="http://www.w3.org/2000/svg">
<path d="M7.10097 0.976074C7.33897 1.02707 7.58197 1.06207 7.81297 1.13107C8.56717 1.35497 9.22439 1.82556 9.67932 2.46742C10.1342 3.10929 10.3606 3.88529 10.322 4.67107C10.2932 5.34747 10.0712 6.00145 9.68215 6.55552C9.29312 7.10958 8.7534 7.54052 8.12696 7.79725C7.50052 8.05398 6.81361 8.12574 6.14764 8.00405C5.48166 7.88235 4.86452 7.57228 4.36937 7.1106C3.87421 6.64891 3.52178 6.05495 3.35384 5.39911C3.1859 4.74326 3.20949 4.05302 3.42182 3.41017C3.63415 2.76732 4.02632 2.19881 4.55184 1.77201C5.07737 1.34521 5.71424 1.07801 6.38697 1.00207C6.41337 0.995737 6.43914 0.987035 6.46397 0.976074H7.10097ZM6.79597 2.16007C6.20904 2.15784 5.64225 2.37393 5.20578 2.76634C4.76931 3.15875 4.49435 3.69944 4.43435 4.2833C4.37436 4.86716 4.53361 5.45247 4.88115 5.92545C5.22869 6.39842 5.73969 6.72527 6.31481 6.84245C6.88993 6.95962 7.48807 6.85876 7.99296 6.55946C8.49785 6.26016 8.87341 5.78382 9.04663 5.22303C9.21984 4.66224 9.17835 4.05707 8.9302 3.52517C8.68205 2.99327 8.24499 2.57265 7.70397 2.34507C7.41649 2.22406 7.10788 2.16118 6.79597 2.16007Z" fill="#FF6500"/>
<path d="M6.78995 9.25605C7.43095 9.25605 8.07295 9.24505 8.71295 9.25605C9.66885 9.28825 10.5834 9.65363 11.2984 10.289C12.0133 10.9243 12.4836 11.7896 12.628 12.735C12.6857 13.3596 12.7047 13.9871 12.685 14.614C12.6781 14.7567 12.618 14.8916 12.5165 14.9921C12.4151 15.0926 12.2797 15.1515 12.137 15.157C11.9928 15.1662 11.8503 15.1216 11.7371 15.0318C11.6238 14.9421 11.5479 14.8135 11.524 14.671C11.5133 14.5975 11.5083 14.5233 11.509 14.449C11.497 13.942 11.525 13.43 11.467 12.928C11.3688 12.2803 11.0565 11.6841 10.5797 11.2347C10.103 10.7854 9.48937 10.5087 8.83695 10.449C8.67195 10.437 8.50395 10.431 8.33695 10.431C7.24829 10.431 6.15962 10.431 5.07095 10.431C4.36367 10.418 3.67525 10.6596 3.13118 11.1117C2.58711 11.5638 2.22361 12.1963 2.10695 12.894C2.07872 13.0622 2.06467 13.2325 2.06495 13.403C2.05895 13.791 2.06495 14.18 2.06495 14.567C2.06555 14.7165 2.00924 14.8605 1.90745 14.9699C1.80566 15.0793 1.66604 15.1459 1.51695 15.156C1.44268 15.1648 1.36741 15.1584 1.29562 15.1375C1.22383 15.1165 1.15699 15.0814 1.09906 15.0341C1.04113 14.9868 0.9933 14.9283 0.958409 14.8622C0.923517 14.796 0.902278 14.7236 0.895952 14.649C0.805148 13.8302 0.860336 13.0017 1.05895 12.202C1.2806 11.4263 1.72843 10.7341 2.34524 10.214C2.96206 9.69395 3.71988 9.36947 4.52195 9.28205C4.71389 9.25697 4.90741 9.24594 5.10095 9.24905C5.66695 9.24905 6.22695 9.24905 6.78895 9.24905L6.78995 9.25605Z" fill="#FF6500"/>
</svg>
