<svg width="19" height="19" viewBox="0 0 19 19" fill="none" xmlns="http://www.w3.org/2000/svg">
<path d="M18.9382 18.382H13.6152V10.582H18.9382V18.382ZM17.8562 11.675H14.6932V12.822H17.8562V11.675ZM17.8562 16.157H14.6872V17.299H17.8562V16.157ZM14.6882 13.914V15.054H17.8542V13.914H14.6882Z" fill="#FF6500"/>
<path d="M15.3933 0.0610352C15.4343 0.109035 15.4723 0.161035 15.5173 0.208035C16.1746 0.866702 16.8323 1.5247 17.4903 2.18204C17.5323 2.22404 17.5723 2.26704 17.5993 2.29604L16.8353 3.06104L15.9183 2.13804C15.9003 2.49204 15.8963 2.81804 15.8653 3.13804C15.7664 4.39339 15.4083 5.61462 14.8136 6.72461C14.2189 7.8346 13.4006 8.80925 12.4103 9.58704C10.7659 10.9338 8.69961 11.6582 6.57427 11.633C5.10127 11.633 3.62727 11.633 2.15427 11.633H1.92627V10.561H2.14627C3.73327 10.561 5.32027 10.581 6.90627 10.547C8.57076 10.487 10.1778 9.92299 11.5147 8.92963C12.8516 7.93626 13.8554 6.56038 14.3933 4.98404C14.698 4.07818 14.8445 3.12661 14.8263 2.17104L13.9123 3.09304L13.1263 2.30704L15.3583 0.0610352H15.3933Z" fill="#FF6500"/>
<path d="M12.4262 12.842V18.374H7.11719V12.842H12.4262ZM11.3542 16.142H8.34819C8.27719 16.142 8.18219 16.113 8.18219 16.242V17.294H11.3552L11.3542 16.142ZM11.3542 15.057V13.917H8.19219V15.056L11.3542 15.057Z" fill="#FF6500"/>
<path d="M5.92619 18.3759H0.617188V15.0759H5.92619V18.3759ZM4.85719 16.1549H1.69219V17.2999H4.85519L4.85719 16.1549Z" fill="#FF6500"/>
</svg>
