<svg width="60" height="60" viewBox="0 0 60 60" fill="none" xmlns="http://www.w3.org/2000/svg">
<circle cx="30" cy="30" r="30" transform="rotate(-180 30 30)" fill="#0BBC35"/>
<g clip-path="url(#clip0_886_324)">
<path d="M42.7681 25.9612L45.2155 28.4633C45.4436 28.6946 45.6209 28.9711 45.7361 29.2749C45.8512 29.5787 45.9016 29.9033 45.884 30.2277C45.8665 30.5522 45.7813 30.8694 45.6341 31.159C45.4868 31.4487 45.2807 31.7044 45.0289 31.9097C42.1898 34.1412 38.8668 35.6756 35.3269 36.3897C32.0592 37.0803 28.6796 37.043 25.428 36.2804C21.8902 35.4834 18.59 33.8642 15.7946 31.554C15.5481 31.3438 15.3482 31.0845 15.2074 30.7928C15.0667 30.501 14.9882 30.1831 14.977 29.8594C14.9659 29.5357 15.0222 29.2131 15.1425 28.9124C15.2628 28.6116 15.4445 28.3392 15.6758 28.1124L18.1779 25.665C18.5787 25.2651 19.1113 25.0246 19.6764 24.9884C20.2414 24.9521 20.8004 25.1226 21.2491 25.4679C22.1379 26.1653 23.1028 26.76 24.1253 27.2405C24.5295 27.4292 24.8711 27.7299 25.1097 28.1068C25.3482 28.4838 25.4737 28.9212 25.4713 29.3673L25.4482 31.4626C28.6778 32.3892 32.0977 32.427 35.3471 31.5719L35.3702 29.4766C35.3776 29.0306 35.5127 28.596 35.7596 28.2244C36.0064 27.8528 36.3546 27.5597 36.7629 27.3799C37.7957 26.9221 38.7735 26.349 39.6775 25.6714C40.1385 25.3322 40.7081 25.1744 41.278 25.2278C41.8478 25.2813 42.3781 25.5423 42.7681 25.9612Z" fill="white"/>
</g>
<defs>
<clipPath id="clip0_886_324">
<rect width="28" height="28" fill="white" transform="translate(10.6165 29.7974) rotate(-44.3676)"/>
</clipPath>
</defs>
</svg>
