<svg width="60" height="60" viewBox="0 0 60 60" fill="none" xmlns="http://www.w3.org/2000/svg">
<circle cx="30" cy="30" r="30" fill="#FF5656"/>
<g clip-path="url(#clip0_485_4707)">
<path d="M17.2319 34.0388L14.7845 31.5367C14.5564 31.3054 14.3791 31.0289 14.2639 30.7251C14.1488 30.4213 14.0984 30.0967 14.116 29.7723C14.1335 29.4478 14.2187 29.1306 14.3659 28.841C14.5132 28.5513 14.7193 28.2956 14.9711 28.0903C17.8102 25.8588 21.1332 24.3244 24.6731 23.6103C27.9408 22.9197 31.3204 22.957 34.572 23.7196C38.1098 24.5166 41.41 26.1358 44.2054 28.446C44.4519 28.6562 44.6518 28.9155 44.7926 29.2072C44.9333 29.499 45.0118 29.8169 45.023 30.1406C45.0341 30.4643 44.9778 30.7869 44.8575 31.0876C44.7372 31.3884 44.5555 31.6608 44.3242 31.8876L41.8221 34.335C41.4213 34.7349 40.8887 34.9754 40.3236 35.0116C39.7586 35.0479 39.1996 34.8774 38.7509 34.5321C37.8621 33.8347 36.8972 33.24 35.8747 32.7595C35.4705 32.5708 35.1289 32.2701 34.8903 31.8932C34.6518 31.5162 34.5263 31.0788 34.5287 30.6327L34.5518 28.5374C31.3222 27.6108 27.9023 27.573 24.6529 28.4281L24.6298 30.5234C24.6224 30.9694 24.4873 31.404 24.2404 31.7756C23.9936 32.1472 23.6454 32.4403 23.2371 32.6201C22.2043 33.0779 21.2265 33.651 20.3225 34.3286C19.8615 34.6678 19.2919 34.8256 18.722 34.7722C18.1522 34.7187 17.6219 34.4577 17.2319 34.0388Z" fill="white"/>
</g>
<defs>
<clipPath id="clip0_485_4707">
<rect width="28" height="28" fill="white" transform="translate(49.3835 30.2026) rotate(135.632)"/>
</clipPath>
</defs>
</svg>
